{
    "asset" : {
        "generator" : "Khronos glTF Blender I/O v1.7.33",
        "version" : "2.0"
    },
    "scene" : 0,
    "scenes" : [
        {
            "name" : "Scene",
            "nodes" : [
                0
            ]
        }
    ],
    "nodes" : [
        {
            "mesh" : 0,
            "name" : "UR3_G5_all_inclusive_new/Copy of Link3_UR3_G5^1000513",
            "rotation" : [
                0.7071068286895752,
                0,
                0,
                0.7071067094802856
            ]
        }
    ],
    "materials" : [
        {
            "doubleSided" : true,
            "name" : "mat_16.001",
            "pbrMetallicRoughness" : {
                "baseColorFactor" : [
                    0.8980389833450317,
                    0.8980389833450317,
                    0.8980389833450317,
                    1
                ],
                "metallicFactor" : 0,
                "roughnessFactor" : 0
            }
        },
        {
            "doubleSided" : true,
            "name" : "mat_18.001",
            "pbrMetallicRoughness" : {
                "baseColorFactor" : [
                    0.48235300183296204,
                    0.792156994342804,
                    1,
                    1
                ],
                "metallicFactor" : 0,
                "roughnessFactor" : 0
            }
        },
        {
            "doubleSided" : true,
            "name" : "mat_17.001",
            "pbrMetallicRoughness" : {
                "baseColorFactor" : [
                    0.7529410123825073,
                    0.7529410123825073,
                    0.7529410123825073,
                    1
                ],
                "metallicFactor" : 0,
                "roughnessFactor" : 0
            }
        },
        {
            "doubleSided" : true,
            "name" : "mat_10.001",
            "pbrMetallicRoughness" : {
                "baseColorFactor" : [
                    0.38431400060653687,
                    0.38431400060653687,
                    0.38431400060653687,
                    1
                ],
                "metallicFactor" : 0,
                "roughnessFactor" : 0
            }
        },
        {
            "doubleSided" : true,
            "name" : "mat_1.001",
            "pbrMetallicRoughness" : {
                "baseColorFactor" : [
                    0.2509799897670746,
                    0.2509799897670746,
                    0.2509799897670746,
                    1
                ],
                "metallicFactor" : 0,
                "roughnessFactor" : 0
            }
        },
        {
            "doubleSided" : true,
            "name" : "mat_11.001",
            "pbrMetallicRoughness" : {
                "baseColorFactor" : [
                    0.6980389952659607,
                    0.6980389952659607,
                    0.6980389952659607,
                    1
                ],
                "metallicFactor" : 0,
                "roughnessFactor" : 0
            }
        },
        {
            "doubleSided" : true,
            "name" : "mat_19.001",
            "pbrMetallicRoughness" : {
                "baseColorFactor" : [
                    0.792156994342804,
                    0.8196079730987549,
                    0.9333329796791077,
                    1
                ],
                "metallicFactor" : 0,
                "roughnessFactor" : 0
            }
        },
        {
            "doubleSided" : true,
            "name" : "mat_9.001",
            "pbrMetallicRoughness" : {
                "baseColorFactor" : [
                    0.6470590233802795,
                    0.6196079850196838,
                    0.5882350206375122,
                    1
                ],
                "metallicFactor" : 0,
                "roughnessFactor" : 0
            }
        }
    ],
    "meshes" : [
        {
            "name" : "UR3_G5_all_inclusive_new/Copy of Link3_UR3_G5^1000513",
            "primitives" : [
                {
                    "attributes" : {
                        "POSITION" : 0,
                        "NORMAL" : 1
                    },
                    "indices" : 2,
                    "material" : 0
                },
                {
                    "attributes" : {
                        "POSITION" : 3,
                        "NORMAL" : 4
                    },
                    "indices" : 5,
                    "material" : 1
                },
                {
                    "attributes" : {
                        "POSITION" : 6,
                        "NORMAL" : 7
                    },
                    "indices" : 8,
                    "material" : 2
                },
                {
                    "attributes" : {
                        "POSITION" : 9,
                        "NORMAL" : 10
                    },
                    "indices" : 11,
                    "material" : 3
                },
                {
                    "attributes" : {
                        "POSITION" : 12,
                        "NORMAL" : 13
                    },
                    "indices" : 14,
                    "material" : 4
                },
                {
                    "attributes" : {
                        "POSITION" : 15,
                        "NORMAL" : 16
                    },
                    "indices" : 17,
                    "material" : 5
                },
                {
                    "attributes" : {
                        "POSITION" : 18,
                        "NORMAL" : 19
                    },
                    "indices" : 20,
                    "material" : 6
                },
                {
                    "attributes" : {
                        "POSITION" : 21,
                        "NORMAL" : 22
                    },
                    "indices" : 23,
                    "material" : 7
                }
            ]
        }
    ],
    "accessors" : [
        {
            "bufferView" : 0,
            "componentType" : 5126,
            "count" : 1356,
            "max" : [
                31.4977970123291,
                -577.1022338867188,
                70.0999984741211
            ],
            "min" : [
                -31.4977970123291,
                -640.0977783203125,
                67.0999984741211
            ],
            "type" : "VEC3"
        },
        {
            "bufferView" : 1,
            "componentType" : 5126,
            "count" : 1356,
            "type" : "VEC3"
        },
        {
            "bufferView" : 2,
            "componentType" : 5123,
            "count" : 5616,
            "type" : "SCALAR"
        },
        {
            "bufferView" : 3,
            "componentType" : 5126,
            "count" : 10903,
            "max" : [
                32.200626373291016,
                -576.6671752929688,
                7.7021379470825195
            ],
            "min" : [
                -32.19779586791992,
                -640.9061889648438,
                -19.5784854888916
            ],
            "type" : "VEC3"
        },
        {
            "bufferView" : 4,
            "componentType" : 5126,
            "count" : 10903,
            "type" : "VEC3"
        },
        {
            "bufferView" : 5,
            "componentType" : 5123,
            "count" : 48246,
            "type" : "SCALAR"
        },
        {
            "bufferView" : 6,
            "componentType" : 5126,
            "count" : 5440,
            "max" : [
                37.49681091308594,
                -357.8993835449219,
                70.0999984741211
            ],
            "min" : [
                -37.48526382446289,
                -640.0999755859375,
                -9.236720085144043
            ],
            "type" : "VEC3"
        },
        {
            "bufferView" : 7,
            "componentType" : 5126,
            "count" : 5440,
            "type" : "VEC3"
        },
        {
            "bufferView" : 8,
            "componentType" : 5123,
            "count" : 25062,
            "type" : "SCALAR"
        },
        {
            "bufferView" : 9,
            "componentType" : 5126,
            "count" : 2146,
            "max" : [
                37.46910095214844,
                -357.930908203125,
                73.55000305175781
            ],
            "min" : [
                -37.46910095214844,
                -573.375,
                -4.547634124755859
            ],
            "type" : "VEC3"
        },
        {
            "bufferView" : 10,
            "componentType" : 5126,
            "count" : 2146,
            "type" : "VEC3"
        },
        {
            "bufferView" : 11,
            "componentType" : 5123,
            "count" : 8610,
            "type" : "SCALAR"
        },
        {
            "bufferView" : 12,
            "componentType" : 5126,
            "count" : 380,
            "max" : [
                37.4933967590332,
                -357.9066162109375,
                73.55000305175781
            ],
            "min" : [
                -37.4933967590332,
                -573.5999755859375,
                -3.9143590927124023
            ],
            "type" : "VEC3"
        },
        {
            "bufferView" : 13,
            "componentType" : 5126,
            "count" : 380,
            "type" : "VEC3"
        },
        {
            "bufferView" : 14,
            "componentType" : 5123,
            "count" : 1092,
            "type" : "SCALAR"
        },
        {
            "bufferView" : 15,
            "componentType" : 5126,
            "count" : 1388,
            "max" : [
                31.496967315673828,
                -447.2749938964844,
                58.49992752075195
            ],
            "min" : [
                -31.496967315673828,
                -567.1500244140625,
                -4.499927997589111
            ],
            "type" : "VEC3"
        },
        {
            "bufferView" : 16,
            "componentType" : 5126,
            "count" : 1388,
            "type" : "VEC3"
        },
        {
            "bufferView" : 17,
            "componentType" : 5123,
            "count" : 5748,
            "type" : "SCALAR"
        },
        {
            "bufferView" : 18,
            "componentType" : 5126,
            "count" : 252,
            "max" : [
                30.283063888549805,
                -578.9210205078125,
                -2.5
            ],
            "min" : [
                -30.283063888549805,
                -605.2368774414062,
                -9.952775955200195
            ],
            "type" : "VEC3"
        },
        {
            "bufferView" : 19,
            "componentType" : 5126,
            "count" : 252,
            "type" : "VEC3"
        },
        {
            "bufferView" : 20,
            "componentType" : 5123,
            "count" : 609,
            "type" : "SCALAR"
        },
        {
            "bufferView" : 21,
            "componentType" : 5126,
            "count" : 1536,
            "max" : [
                21.88044548034668,
                -589.8626098632812,
                -9.401515007019043
            ],
            "min" : [
                -21.88044548034668,
                -636.9462890625,
                -15.901515007019043
            ],
            "type" : "VEC3"
        },
        {
            "bufferView" : 22,
            "componentType" : 5126,
            "count" : 1536,
            "type" : "VEC3"
        },
        {
            "bufferView" : 23,
            "componentType" : 5123,
            "count" : 6276,
            "type" : "SCALAR"
        }
    ],
    "bufferViews" : [
        {
            "buffer" : 0,
            "byteLength" : 16272,
            "byteOffset" : 0
        },
        {
            "buffer" : 0,
            "byteLength" : 16272,
            "byteOffset" : 16272
        },
        {
            "buffer" : 0,
            "byteLength" : 11232,
            "byteOffset" : 32544
        },
        {
            "buffer" : 0,
            "byteLength" : 130836,
            "byteOffset" : 43776
        },
        {
            "buffer" : 0,
            "byteLength" : 130836,
            "byteOffset" : 174612
        },
        {
            "buffer" : 0,
            "byteLength" : 96492,
            "byteOffset" : 305448
        },
        {
            "buffer" : 0,
            "byteLength" : 65280,
            "byteOffset" : 401940
        },
        {
            "buffer" : 0,
            "byteLength" : 65280,
            "byteOffset" : 467220
        },
        {
            "buffer" : 0,
            "byteLength" : 50124,
            "byteOffset" : 532500
        },
        {
            "buffer" : 0,
            "byteLength" : 25752,
            "byteOffset" : 582624
        },
        {
            "buffer" : 0,
            "byteLength" : 25752,
            "byteOffset" : 608376
        },
        {
            "buffer" : 0,
            "byteLength" : 17220,
            "byteOffset" : 634128
        },
        {
            "buffer" : 0,
            "byteLength" : 4560,
            "byteOffset" : 651348
        },
        {
            "buffer" : 0,
            "byteLength" : 4560,
            "byteOffset" : 655908
        },
        {
            "buffer" : 0,
            "byteLength" : 2184,
            "byteOffset" : 660468
        },
        {
            "buffer" : 0,
            "byteLength" : 16656,
            "byteOffset" : 662652
        },
        {
            "buffer" : 0,
            "byteLength" : 16656,
            "byteOffset" : 679308
        },
        {
            "buffer" : 0,
            "byteLength" : 11496,
            "byteOffset" : 695964
        },
        {
            "buffer" : 0,
            "byteLength" : 3024,
            "byteOffset" : 707460
        },
        {
            "buffer" : 0,
            "byteLength" : 3024,
            "byteOffset" : 710484
        },
        {
            "buffer" : 0,
            "byteLength" : 1218,
            "byteOffset" : 713508
        },
        {
            "buffer" : 0,
            "byteLength" : 18432,
            "byteOffset" : 714728
        },
        {
            "buffer" : 0,
            "byteLength" : 18432,
            "byteOffset" : 733160
        },
        {
            "buffer" : 0,
            "byteLength" : 12552,
            "byteOffset" : 751592
        }
    ],
    "buffers" : [
        {
            "byteLength" : 764144,
            "uri" : "data:application/octet-stream;base64,"
        }
    ]
}
