{
    "asset" : {
        "generator" : "Khronos glTF Blender I/O v1.7.33",
        "version" : "2.0"
    },
    "scene" : 0,
    "scenes" : [
        {
            "name" : "Scene",
            "nodes" : [
                0
            ]
        }
    ],
    "nodes" : [
        {
            "mesh" : 0,
            "name" : "UR3_G5_all_inclusive_new/Copy of Link5_UR3_G5^1000513",
            "rotation" : [
                0.7071068286895752,
                0,
                0,
                0.7071067094802856
            ]
        }
    ],
    "materials" : [
        {
            "doubleSided" : true,
            "name" : "mat_16.001",
            "pbrMetallicRoughness" : {
                "baseColorFactor" : [
                    0.8980389833450317,
                    0.8980389833450317,
                    0.8980389833450317,
                    1
                ],
                "metallicFactor" : 0,
                "roughnessFactor" : 0
            }
        },
        {
            "doubleSided" : true,
            "name" : "mat_18.001",
            "pbrMetallicRoughness" : {
                "baseColorFactor" : [
                    0.48235300183296204,
                    0.792156994342804,
                    1,
                    1
                ],
                "metallicFactor" : 0,
                "roughnessFactor" : 0
            }
        },
        {
            "doubleSided" : true,
            "name" : "mat_17.001",
            "pbrMetallicRoughness" : {
                "baseColorFactor" : [
                    0.7529410123825073,
                    0.7529410123825073,
                    0.7529410123825073,
                    1
                ],
                "metallicFactor" : 0,
                "roughnessFactor" : 0
            }
        },
        {
            "doubleSided" : true,
            "name" : "mat_9.001",
            "pbrMetallicRoughness" : {
                "baseColorFactor" : [
                    0.6470590233802795,
                    0.6196079850196838,
                    0.5882350206375122,
                    1
                ],
                "metallicFactor" : 0,
                "roughnessFactor" : 0
            }
        },
        {
            "doubleSided" : true,
            "name" : "mat_1.001",
            "pbrMetallicRoughness" : {
                "baseColorFactor" : [
                    0.2509799897670746,
                    0.2509799897670746,
                    0.2509799897670746,
                    1
                ],
                "metallicFactor" : 0,
                "roughnessFactor" : 0
            }
        },
        {
            "doubleSided" : true,
            "name" : "mat_10.001",
            "pbrMetallicRoughness" : {
                "baseColorFactor" : [
                    0.38431400060653687,
                    0.38431400060653687,
                    0.38431400060653687,
                    1
                ],
                "metallicFactor" : 0,
                "roughnessFactor" : 0
            }
        },
        {
            "doubleSided" : true,
            "name" : "mat_19.001",
            "pbrMetallicRoughness" : {
                "baseColorFactor" : [
                    0.792156994342804,
                    0.8196079730987549,
                    0.9333329796791077,
                    1
                ],
                "metallicFactor" : 0,
                "roughnessFactor" : 0
            }
        }
    ],
    "meshes" : [
        {
            "name" : "UR3_G5_all_inclusive_new/Copy of Link5_UR3_G5^1000513",
            "primitives" : [
                {
                    "attributes" : {
                        "POSITION" : 0,
                        "NORMAL" : 1
                    },
                    "indices" : 2,
                    "material" : 0
                },
                {
                    "attributes" : {
                        "POSITION" : 3,
                        "NORMAL" : 4
                    },
                    "indices" : 5,
                    "material" : 1
                },
                {
                    "attributes" : {
                        "POSITION" : 6,
                        "NORMAL" : 7
                    },
                    "indices" : 8,
                    "material" : 2
                },
                {
                    "attributes" : {
                        "POSITION" : 9,
                        "NORMAL" : 10
                    },
                    "indices" : 11,
                    "material" : 3
                },
                {
                    "attributes" : {
                        "POSITION" : 12,
                        "NORMAL" : 13
                    },
                    "indices" : 14,
                    "material" : 4
                },
                {
                    "attributes" : {
                        "POSITION" : 15,
                        "NORMAL" : 16
                    },
                    "indices" : 17,
                    "material" : 5
                },
                {
                    "attributes" : {
                        "POSITION" : 18,
                        "NORMAL" : 19
                    },
                    "indices" : 20,
                    "material" : 6
                }
            ]
        }
    ],
    "accessors" : [
        {
            "bufferView" : 0,
            "componentType" : 5126,
            "count" : 1356,
            "max" : [
                31.4977970123291,
                -662.4522094726562,
                174.14999389648438
            ],
            "min" : [
                -31.4977970123291,
                -725.4478149414062,
                171.14999389648438
            ],
            "type" : "VEC3"
        },
        {
            "bufferView" : 1,
            "componentType" : 5126,
            "count" : 1356,
            "type" : "VEC3"
        },
        {
            "bufferView" : 2,
            "componentType" : 5123,
            "count" : 5616,
            "type" : "SCALAR"
        },
        {
            "bufferView" : 3,
            "componentType" : 5126,
            "count" : 11057,
            "max" : [
                32.200626373291016,
                -662.0171508789062,
                111.75213623046875
            ],
            "min" : [
                -32.19779586791992,
                -726.2561645507812,
                84.47151184082031
            ],
            "type" : "VEC3"
        },
        {
            "bufferView" : 4,
            "componentType" : 5126,
            "count" : 11057,
            "type" : "VEC3"
        },
        {
            "bufferView" : 5,
            "componentType" : 5123,
            "count" : 49086,
            "type" : "SCALAR"
        },
        {
            "bufferView" : 6,
            "componentType" : 5126,
            "count" : 4848,
            "max" : [
                31.5,
                -658.9500122070312,
                174.14999389648438
            ],
            "min" : [
                -31.5,
                -725.4500122070312,
                94.81327819824219
            ],
            "type" : "VEC3"
        },
        {
            "bufferView" : 7,
            "componentType" : 5126,
            "count" : 4848,
            "type" : "VEC3"
        },
        {
            "bufferView" : 8,
            "componentType" : 5123,
            "count" : 22971,
            "type" : "SCALAR"
        },
        {
            "bufferView" : 9,
            "componentType" : 5126,
            "count" : 1536,
            "max" : [
                21.88044548034668,
                -675.2125854492188,
                94.64848327636719
            ],
            "min" : [
                -21.88044548034668,
                -722.2963256835938,
                88.14848327636719
            ],
            "type" : "VEC3"
        },
        {
            "bufferView" : 10,
            "componentType" : 5126,
            "count" : 1536,
            "type" : "VEC3"
        },
        {
            "bufferView" : 11,
            "componentType" : 5123,
            "count" : 6276,
            "type" : "SCALAR"
        },
        {
            "bufferView" : 12,
            "componentType" : 5126,
            "count" : 416,
            "max" : [
                31.496967315673828,
                -651.7000122070312,
                162.54696655273438
            ],
            "min" : [
                -31.496967315673828,
                -658.9500122070312,
                99.55303192138672
            ],
            "type" : "VEC3"
        },
        {
            "bufferView" : 13,
            "componentType" : 5126,
            "count" : 416,
            "type" : "VEC3"
        },
        {
            "bufferView" : 14,
            "componentType" : 5123,
            "count" : 1194,
            "type" : "SCALAR"
        },
        {
            "bufferView" : 15,
            "componentType" : 5126,
            "count" : 1076,
            "max" : [
                31.471303939819336,
                -652.7249755859375,
                162.52130126953125
            ],
            "min" : [
                -31.471303939819336,
                -658.7249755859375,
                99.57869720458984
            ],
            "type" : "VEC3"
        },
        {
            "bufferView" : 16,
            "componentType" : 5126,
            "count" : 1076,
            "type" : "VEC3"
        },
        {
            "bufferView" : 17,
            "componentType" : 5123,
            "count" : 4596,
            "type" : "SCALAR"
        },
        {
            "bufferView" : 18,
            "componentType" : 5126,
            "count" : 39,
            "max" : [
                29.199813842773438,
                -664.2509765625,
                101.55000305175781
            ],
            "min" : [
                -29.199813842773438,
                -689.09912109375,
                95.4377212524414
            ],
            "type" : "VEC3"
        },
        {
            "bufferView" : 19,
            "componentType" : 5126,
            "count" : 39,
            "type" : "VEC3"
        },
        {
            "bufferView" : 20,
            "componentType" : 5123,
            "count" : 111,
            "type" : "SCALAR"
        }
    ],
    "bufferViews" : [
        {
            "buffer" : 0,
            "byteLength" : 16272,
            "byteOffset" : 0
        },
        {
            "buffer" : 0,
            "byteLength" : 16272,
            "byteOffset" : 16272
        },
        {
            "buffer" : 0,
            "byteLength" : 11232,
            "byteOffset" : 32544
        },
        {
            "buffer" : 0,
            "byteLength" : 132684,
            "byteOffset" : 43776
        },
        {
            "buffer" : 0,
            "byteLength" : 132684,
            "byteOffset" : 176460
        },
        {
            "buffer" : 0,
            "byteLength" : 98172,
            "byteOffset" : 309144
        },
        {
            "buffer" : 0,
            "byteLength" : 58176,
            "byteOffset" : 407316
        },
        {
            "buffer" : 0,
            "byteLength" : 58176,
            "byteOffset" : 465492
        },
        {
            "buffer" : 0,
            "byteLength" : 45942,
            "byteOffset" : 523668
        },
        {
            "buffer" : 0,
            "byteLength" : 18432,
            "byteOffset" : 569612
        },
        {
            "buffer" : 0,
            "byteLength" : 18432,
            "byteOffset" : 588044
        },
        {
            "buffer" : 0,
            "byteLength" : 12552,
            "byteOffset" : 606476
        },
        {
            "buffer" : 0,
            "byteLength" : 4992,
            "byteOffset" : 619028
        },
        {
            "buffer" : 0,
            "byteLength" : 4992,
            "byteOffset" : 624020
        },
        {
            "buffer" : 0,
            "byteLength" : 2388,
            "byteOffset" : 629012
        },
        {
            "buffer" : 0,
            "byteLength" : 12912,
            "byteOffset" : 631400
        },
        {
            "buffer" : 0,
            "byteLength" : 12912,
            "byteOffset" : 644312
        },
        {
            "buffer" : 0,
            "byteLength" : 9192,
            "byteOffset" : 657224
        },
        {
            "buffer" : 0,
            "byteLength" : 468,
            "byteOffset" : 666416
        },
        {
            "buffer" : 0,
            "byteLength" : 468,
            "byteOffset" : 666884
        },
        {
            "buffer" : 0,
            "byteLength" : 222,
            "byteOffset" : 667352
        }
    ],
    "buffers" : [
        {
            "byteLength" : 667576,
            "uri" : "data:application/octet-stream;base64,"
        }
    ]
}
