{
    "asset" : {
        "generator" : "Khronos glTF Blender I/O v1.7.33",
        "version" : "2.0"
    },
    "scene" : 0,
    "scenes" : [
        {
            "name" : "Scene",
            "nodes" : [
                0
            ]
        }
    ],
    "nodes" : [
        {
            "mesh" : 0,
            "name" : "UR3_G5_all_inclusive_new/Copy of Link6_UR3_G5^1000513",
            "rotation" : [
                0.7071068286895752,
                0,
                0,
                0.7071067094802856
            ]
        }
    ],
    "materials" : [
        {
            "doubleSided" : true,
            "name" : "mat_11.001",
            "pbrMetallicRoughness" : {
                "baseColorFactor" : [
                    0.6980389952659607,
                    0.6980389952659607,
                    0.6980389952659607,
                    1
                ],
                "metallicFactor" : 0,
                "roughnessFactor" : 0
            }
        },
        {
            "doubleSided" : true,
            "name" : "mat_1.001",
            "pbrMetallicRoughness" : {
                "baseColorFactor" : [
                    0.2509799897670746,
                    0.2509799897670746,
                    0.2509799897670746,
                    1
                ],
                "metallicFactor" : 0,
                "roughnessFactor" : 0
            }
        },
        {
            "doubleSided" : true,
            "name" : "mat_10.001",
            "pbrMetallicRoughness" : {
                "baseColorFactor" : [
                    0.38431400060653687,
                    0.38431400060653687,
                    0.38431400060653687,
                    1
                ],
                "metallicFactor" : 0,
                "roughnessFactor" : 0
            }
        },
        {
            "doubleSided" : true,
            "name" : "mat_22.001",
            "pbrMetallicRoughness" : {
                "baseColorFactor" : [
                    0.7960780262947083,
                    0.8235290050506592,
                    0.9372550249099731,
                    1
                ],
                "metallicFactor" : 0,
                "roughnessFactor" : 0
            }
        },
        {
            "doubleSided" : true,
            "name" : "mat_19.001",
            "pbrMetallicRoughness" : {
                "baseColorFactor" : [
                    0.792156994342804,
                    0.8196079730987549,
                    0.9333329796791077,
                    1
                ],
                "metallicFactor" : 0,
                "roughnessFactor" : 0
            }
        },
        {
            "doubleSided" : true,
            "name" : "mat_23.001",
            "pbrMetallicRoughness" : {
                "baseColorFactor" : [
                    0.8666669726371765,
                    0.9098039865493774,
                    1,
                    1
                ],
                "metallicFactor" : 0,
                "roughnessFactor" : 0
            }
        }
    ],
    "meshes" : [
        {
            "name" : "UR3_G5_all_inclusive_new/Copy of Link6_UR3_G5^1000513",
            "primitives" : [
                {
                    "attributes" : {
                        "POSITION" : 0,
                        "NORMAL" : 1
                    },
                    "indices" : 2,
                    "material" : 0
                },
                {
                    "attributes" : {
                        "POSITION" : 3,
                        "NORMAL" : 4
                    },
                    "indices" : 5,
                    "material" : 1
                },
                {
                    "attributes" : {
                        "POSITION" : 6,
                        "NORMAL" : 7
                    },
                    "indices" : 8,
                    "material" : 2
                },
                {
                    "attributes" : {
                        "POSITION" : 9,
                        "NORMAL" : 10
                    },
                    "indices" : 11,
                    "material" : 3
                },
                {
                    "attributes" : {
                        "POSITION" : 12,
                        "NORMAL" : 13
                    },
                    "indices" : 14,
                    "material" : 4
                },
                {
                    "attributes" : {
                        "POSITION" : 15,
                        "NORMAL" : 16
                    },
                    "indices" : 17,
                    "material" : 5
                }
            ]
        }
    ],
    "accessors" : [
        {
            "bufferView" : 0,
            "componentType" : 5126,
            "count" : 4993,
            "max" : [
                31.5,
                -662.4500122070312,
                223.14999389648438
            ],
            "min" : [
                -31.5,
                -731.7969970703125,
                181.4499969482422
            ],
            "type" : "VEC3"
        },
        {
            "bufferView" : 1,
            "componentType" : 5126,
            "count" : 4993,
            "type" : "VEC3"
        },
        {
            "bufferView" : 2,
            "componentType" : 5123,
            "count" : 16515,
            "type" : "SCALAR"
        },
        {
            "bufferView" : 3,
            "componentType" : 5126,
            "count" : 260,
            "max" : [
                31.5,
                -662.4500122070312,
                174.9499969482422
            ],
            "min" : [
                -31.5,
                -725.4500122070312,
                174.14999389648438
            ],
            "type" : "VEC3"
        },
        {
            "bufferView" : 4,
            "componentType" : 5126,
            "count" : 260,
            "type" : "VEC3"
        },
        {
            "bufferView" : 5,
            "componentType" : 5123,
            "count" : 750,
            "type" : "SCALAR"
        },
        {
            "bufferView" : 6,
            "componentType" : 5126,
            "count" : 928,
            "max" : [
                31.496665954589844,
                -662.4533081054688,
                181.4499969482422
            ],
            "min" : [
                -31.496665954589844,
                -725.4466552734375,
                174.9499969482422
            ],
            "type" : "VEC3"
        },
        {
            "bufferView" : 7,
            "componentType" : 5126,
            "count" : 928,
            "type" : "VEC3"
        },
        {
            "bufferView" : 8,
            "componentType" : 5123,
            "count" : 3720,
            "type" : "SCALAR"
        },
        {
            "bufferView" : 9,
            "componentType" : 5126,
            "count" : 76,
            "max" : [
                4.908426761627197,
                -724.697021484375,
                198.4584197998047
            ],
            "min" : [
                -4.908426761627197,
                -727.697021484375,
                188.64157104492188
            ],
            "type" : "VEC3"
        },
        {
            "bufferView" : 10,
            "componentType" : 5126,
            "count" : 76,
            "type" : "VEC3"
        },
        {
            "bufferView" : 11,
            "componentType" : 5123,
            "count" : 216,
            "type" : "SCALAR"
        },
        {
            "bufferView" : 12,
            "componentType" : 5126,
            "count" : 422,
            "max" : [
                22.42754364013672,
                -671.5223388671875,
                214.64999389648438
            ],
            "min" : [
                -22.42754364013672,
                -721.697021484375,
                188.5500030517578
            ],
            "type" : "VEC3"
        },
        {
            "bufferView" : 13,
            "componentType" : 5126,
            "count" : 422,
            "type" : "VEC3"
        },
        {
            "bufferView" : 14,
            "componentType" : 5123,
            "count" : 1188,
            "type" : "SCALAR"
        },
        {
            "bufferView" : 15,
            "componentType" : 5126,
            "count" : 77,
            "max" : [
                3.4988789558410645,
                -721.697021484375,
                197.0488739013672
            ],
            "min" : [
                -3.4988789558410645,
                -729.2969970703125,
                190.05111694335938
            ],
            "type" : "VEC3"
        },
        {
            "bufferView" : 16,
            "componentType" : 5126,
            "count" : 77,
            "type" : "VEC3"
        },
        {
            "bufferView" : 17,
            "componentType" : 5123,
            "count" : 219,
            "type" : "SCALAR"
        }
    ],
    "bufferViews" : [
        {
            "buffer" : 0,
            "byteLength" : 59916,
            "byteOffset" : 0
        },
        {
            "buffer" : 0,
            "byteLength" : 59916,
            "byteOffset" : 59916
        },
        {
            "buffer" : 0,
            "byteLength" : 33030,
            "byteOffset" : 119832
        },
        {
            "buffer" : 0,
            "byteLength" : 3120,
            "byteOffset" : 152864
        },
        {
            "buffer" : 0,
            "byteLength" : 3120,
            "byteOffset" : 155984
        },
        {
            "buffer" : 0,
            "byteLength" : 1500,
            "byteOffset" : 159104
        },
        {
            "buffer" : 0,
            "byteLength" : 11136,
            "byteOffset" : 160604
        },
        {
            "buffer" : 0,
            "byteLength" : 11136,
            "byteOffset" : 171740
        },
        {
            "buffer" : 0,
            "byteLength" : 7440,
            "byteOffset" : 182876
        },
        {
            "buffer" : 0,
            "byteLength" : 912,
            "byteOffset" : 190316
        },
        {
            "buffer" : 0,
            "byteLength" : 912,
            "byteOffset" : 191228
        },
        {
            "buffer" : 0,
            "byteLength" : 432,
            "byteOffset" : 192140
        },
        {
            "buffer" : 0,
            "byteLength" : 5064,
            "byteOffset" : 192572
        },
        {
            "buffer" : 0,
            "byteLength" : 5064,
            "byteOffset" : 197636
        },
        {
            "buffer" : 0,
            "byteLength" : 2376,
            "byteOffset" : 202700
        },
        {
            "buffer" : 0,
            "byteLength" : 924,
            "byteOffset" : 205076
        },
        {
            "buffer" : 0,
            "byteLength" : 924,
            "byteOffset" : 206000
        },
        {
            "buffer" : 0,
            "byteLength" : 438,
            "byteOffset" : 206924
        }
    ],
    "buffers" : [
        {
            "byteLength" : 207364,
            "uri" : "data:application/octet-stream;base64,"
        }
    ]
}
