{
    "asset" : {
        "generator" : "Khronos glTF Blender I/O v1.7.33",
        "version" : "2.0"
    },
    "scene" : 0,
    "scenes" : [
        {
            "name" : "Scene",
            "nodes" : [
                0
            ]
        }
    ],
    "nodes" : [
        {
            "mesh" : 0,
            "name" : "UR3_G5_all_inclusive_new/Copy of Link1_UR3_G5^1000513",
            "rotation" : [
                0.7071068286895752,
                0,
                0,
                0.7071067094802856
            ]
        }
    ],
    "materials" : [
        {
            "doubleSided" : true,
            "name" : "mat_16.001",
            "pbrMetallicRoughness" : {
                "baseColorFactor" : [
                    0.8980389833450317,
                    0.8980389833450317,
                    0.8980389833450317,
                    1
                ],
                "metallicFactor" : 0,
                "roughnessFactor" : 0
            }
        },
        {
            "doubleSided" : true,
            "name" : "mat_17.001",
            "pbrMetallicRoughness" : {
                "baseColorFactor" : [
                    0.7529410123825073,
                    0.7529410123825073,
                    0.7529410123825073,
                    1
                ],
                "metallicFactor" : 0,
                "roughnessFactor" : 0
            }
        },
        {
            "doubleSided" : true,
            "name" : "mat_18.001",
            "pbrMetallicRoughness" : {
                "baseColorFactor" : [
                    0.48235300183296204,
                    0.792156994342804,
                    1,
                    1
                ],
                "metallicFactor" : 0,
                "roughnessFactor" : 0
            }
        },
        {
            "doubleSided" : true,
            "name" : "mat_1.001",
            "pbrMetallicRoughness" : {
                "baseColorFactor" : [
                    0.2509799897670746,
                    0.2509799897670746,
                    0.2509799897670746,
                    1
                ],
                "metallicFactor" : 0,
                "roughnessFactor" : 0
            }
        },
        {
            "doubleSided" : true,
            "name" : "mat_10.001",
            "pbrMetallicRoughness" : {
                "baseColorFactor" : [
                    0.38431400060653687,
                    0.38431400060653687,
                    0.38431400060653687,
                    1
                ],
                "metallicFactor" : 0,
                "roughnessFactor" : 0
            }
        },
        {
            "doubleSided" : true,
            "name" : "mat_19.001",
            "pbrMetallicRoughness" : {
                "baseColorFactor" : [
                    0.792156994342804,
                    0.8196079730987549,
                    0.9333329796791077,
                    1
                ],
                "metallicFactor" : 0,
                "roughnessFactor" : 0
            }
        }
    ],
    "meshes" : [
        {
            "name" : "UR3_G5_all_inclusive_new/Copy of Link1_UR3_G5^1000513",
            "primitives" : [
                {
                    "attributes" : {
                        "POSITION" : 0,
                        "NORMAL" : 1
                    },
                    "indices" : 2,
                    "material" : 0
                },
                {
                    "attributes" : {
                        "POSITION" : 3,
                        "NORMAL" : 4
                    },
                    "indices" : 5,
                    "material" : 1
                },
                {
                    "attributes" : {
                        "POSITION" : 6,
                        "NORMAL" : 7
                    },
                    "indices" : 8,
                    "material" : 2
                },
                {
                    "attributes" : {
                        "POSITION" : 9,
                        "NORMAL" : 10
                    },
                    "indices" : 11,
                    "material" : 3
                },
                {
                    "attributes" : {
                        "POSITION" : 12,
                        "NORMAL" : 13
                    },
                    "indices" : 14,
                    "material" : 4
                },
                {
                    "attributes" : {
                        "POSITION" : 15,
                        "NORMAL" : 16
                    },
                    "indices" : 17,
                    "material" : 5
                }
            ]
        }
    ],
    "accessors" : [
        {
            "bufferView" : 0,
            "componentType" : 5126,
            "count" : 3779,
            "max" : [
                44.99985122680664,
                -94.94999694824219,
                44.99985122680664
            ],
            "min" : [
                -44.99985122680664,
                -206.53147888183594,
                -44.99985122680664
            ],
            "type" : "VEC3"
        },
        {
            "bufferView" : 1,
            "componentType" : 5126,
            "count" : 3779,
            "type" : "VEC3"
        },
        {
            "bufferView" : 2,
            "componentType" : 5123,
            "count" : 15885,
            "type" : "SCALAR"
        },
        {
            "bufferView" : 3,
            "componentType" : 5126,
            "count" : 4485,
            "max" : [
                45.00056457519531,
                -94.94999694824219,
                52.900001525878906
            ],
            "min" : [
                -45.00056457519531,
                -201.3384246826172,
                -45
            ],
            "type" : "VEC3"
        },
        {
            "bufferView" : 4,
            "componentType" : 5126,
            "count" : 4485,
            "type" : "VEC3"
        },
        {
            "bufferView" : 5,
            "componentType" : 5123,
            "count" : 19698,
            "type" : "SCALAR"
        },
        {
            "bufferView" : 6,
            "componentType" : 5126,
            "count" : 17447,
            "max" : [
                46.882686614990234,
                -162.9482879638672,
                46.997825622558594
            ],
            "min" : [
                -46.92546463012695,
                -210.0536346435547,
                -46.985801696777344
            ],
            "type" : "VEC3"
        },
        {
            "bufferView" : 7,
            "componentType" : 5126,
            "count" : 17447,
            "type" : "VEC3"
        },
        {
            "bufferView" : 8,
            "componentType" : 5123,
            "count" : 67332,
            "type" : "SCALAR"
        },
        {
            "bufferView" : 9,
            "componentType" : 5126,
            "count" : 427,
            "max" : [
                44.88114547729492,
                -106.9688491821289,
                62.95000076293945
            ],
            "min" : [
                -44.88114547729492,
                -196.73114013671875,
                42.49567794799805
            ],
            "type" : "VEC3"
        },
        {
            "bufferView" : 10,
            "componentType" : 5126,
            "count" : 427,
            "type" : "VEC3"
        },
        {
            "bufferView" : 11,
            "componentType" : 5123,
            "count" : 1227,
            "type" : "SCALAR"
        },
        {
            "bufferView" : 12,
            "componentType" : 5126,
            "count" : 588,
            "max" : [
                44.98270797729492,
                -106.89527893066406,
                61.93061447143555
            ],
            "min" : [
                -44.98270797729492,
                -196.80471801757812,
                53.119384765625
            ],
            "type" : "VEC3"
        },
        {
            "bufferView" : 13,
            "componentType" : 5126,
            "count" : 588,
            "type" : "VEC3"
        },
        {
            "bufferView" : 14,
            "componentType" : 5123,
            "count" : 2700,
            "type" : "SCALAR"
        },
        {
            "bufferView" : 15,
            "componentType" : 5126,
            "count" : 176,
            "max" : [
                42.75605392456055,
                -165.37098693847656,
                43.06137466430664
            ],
            "min" : [
                -42.761383056640625,
                -198.84817504882812,
                -35.50706481933594
            ],
            "type" : "VEC3"
        },
        {
            "bufferView" : 16,
            "componentType" : 5126,
            "count" : 176,
            "type" : "VEC3"
        },
        {
            "bufferView" : 17,
            "componentType" : 5123,
            "count" : 516,
            "type" : "SCALAR"
        }
    ],
    "bufferViews" : [
        {
            "buffer" : 0,
            "byteLength" : 45348,
            "byteOffset" : 0
        },
        {
            "buffer" : 0,
            "byteLength" : 45348,
            "byteOffset" : 45348
        },
        {
            "buffer" : 0,
            "byteLength" : 31770,
            "byteOffset" : 90696
        },
        {
            "buffer" : 0,
            "byteLength" : 53820,
            "byteOffset" : 122468
        },
        {
            "buffer" : 0,
            "byteLength" : 53820,
            "byteOffset" : 176288
        },
        {
            "buffer" : 0,
            "byteLength" : 39396,
            "byteOffset" : 230108
        },
        {
            "buffer" : 0,
            "byteLength" : 209364,
            "byteOffset" : 269504
        },
        {
            "buffer" : 0,
            "byteLength" : 209364,
            "byteOffset" : 478868
        },
        {
            "buffer" : 0,
            "byteLength" : 134664,
            "byteOffset" : 688232
        },
        {
            "buffer" : 0,
            "byteLength" : 5124,
            "byteOffset" : 822896
        },
        {
            "buffer" : 0,
            "byteLength" : 5124,
            "byteOffset" : 828020
        },
        {
            "buffer" : 0,
            "byteLength" : 2454,
            "byteOffset" : 833144
        },
        {
            "buffer" : 0,
            "byteLength" : 7056,
            "byteOffset" : 835600
        },
        {
            "buffer" : 0,
            "byteLength" : 7056,
            "byteOffset" : 842656
        },
        {
            "buffer" : 0,
            "byteLength" : 5400,
            "byteOffset" : 849712
        },
        {
            "buffer" : 0,
            "byteLength" : 2112,
            "byteOffset" : 855112
        },
        {
            "buffer" : 0,
            "byteLength" : 2112,
            "byteOffset" : 857224
        },
        {
            "buffer" : 0,
            "byteLength" : 1032,
            "byteOffset" : 859336
        }
    ],
    "buffers" : [
        {
            "byteLength" : 860368,
            "uri" : "data:application/octet-stream;base64,"
        }
    ]
}
