{
    "asset" : {
        "generator" : "Khronos glTF Blender I/O v1.7.33",
        "version" : "2.0"
    },
    "scene" : 0,
    "scenes" : [
        {
            "name" : "Scene",
            "nodes" : [
                0
            ]
        }
    ],
    "nodes" : [
        {
            "mesh" : 0,
            "name" : "UR3_G5_all_inclusive_new/Copy of Link4_UR3_G5^1000513",
            "rotation" : [
                0.7071068286895752,
                0,
                0,
                0.7071067094802856
            ]
        }
    ],
    "materials" : [
        {
            "doubleSided" : true,
            "name" : "mat_16.001",
            "pbrMetallicRoughness" : {
                "baseColorFactor" : [
                    0.8980389833450317,
                    0.8980389833450317,
                    0.8980389833450317,
                    1
                ],
                "metallicFactor" : 0,
                "roughnessFactor" : 0
            }
        },
        {
            "doubleSided" : true,
            "name" : "mat_18.001",
            "pbrMetallicRoughness" : {
                "baseColorFactor" : [
                    0.48235300183296204,
                    0.792156994342804,
                    1,
                    1
                ],
                "metallicFactor" : 0,
                "roughnessFactor" : 0
            }
        },
        {
            "doubleSided" : true,
            "name" : "mat_17.001",
            "pbrMetallicRoughness" : {
                "baseColorFactor" : [
                    0.7529410123825073,
                    0.7529410123825073,
                    0.7529410123825073,
                    1
                ],
                "metallicFactor" : 0,
                "roughnessFactor" : 0
            }
        },
        {
            "doubleSided" : true,
            "name" : "mat_19.001",
            "pbrMetallicRoughness" : {
                "baseColorFactor" : [
                    0.792156994342804,
                    0.8196079730987549,
                    0.9333329796791077,
                    1
                ],
                "metallicFactor" : 0,
                "roughnessFactor" : 0
            }
        },
        {
            "doubleSided" : true,
            "name" : "mat_9.001",
            "pbrMetallicRoughness" : {
                "baseColorFactor" : [
                    0.6470590233802795,
                    0.6196079850196838,
                    0.5882350206375122,
                    1
                ],
                "metallicFactor" : 0,
                "roughnessFactor" : 0
            }
        },
        {
            "doubleSided" : true,
            "name" : "mat_1.001",
            "pbrMetallicRoughness" : {
                "baseColorFactor" : [
                    0.2509799897670746,
                    0.2509799897670746,
                    0.2509799897670746,
                    1
                ],
                "metallicFactor" : 0,
                "roughnessFactor" : 0
            }
        },
        {
            "doubleSided" : true,
            "name" : "mat_10.001",
            "pbrMetallicRoughness" : {
                "baseColorFactor" : [
                    0.38431400060653687,
                    0.38431400060653687,
                    0.38431400060653687,
                    1
                ],
                "metallicFactor" : 0,
                "roughnessFactor" : 0
            }
        }
    ],
    "meshes" : [
        {
            "name" : "UR3_G5_all_inclusive_new/Copy of Link4_UR3_G5^1000513",
            "primitives" : [
                {
                    "attributes" : {
                        "POSITION" : 0,
                        "NORMAL" : 1
                    },
                    "indices" : 2,
                    "material" : 0
                },
                {
                    "attributes" : {
                        "POSITION" : 3,
                        "NORMAL" : 4
                    },
                    "indices" : 5,
                    "material" : 1
                },
                {
                    "attributes" : {
                        "POSITION" : 6,
                        "NORMAL" : 7
                    },
                    "indices" : 8,
                    "material" : 2
                },
                {
                    "attributes" : {
                        "POSITION" : 9,
                        "NORMAL" : 10
                    },
                    "indices" : 11,
                    "material" : 3
                },
                {
                    "attributes" : {
                        "POSITION" : 12,
                        "NORMAL" : 13
                    },
                    "indices" : 14,
                    "material" : 4
                },
                {
                    "attributes" : {
                        "POSITION" : 15,
                        "NORMAL" : 16
                    },
                    "indices" : 17,
                    "material" : 5
                },
                {
                    "attributes" : {
                        "POSITION" : 18,
                        "NORMAL" : 19
                    },
                    "indices" : 20,
                    "material" : 6
                }
            ]
        }
    ],
    "accessors" : [
        {
            "bufferView" : 0,
            "componentType" : 5126,
            "count" : 1356,
            "max" : [
                31.4977970123291,
                -648.7000122070312,
                162.54779052734375
            ],
            "min" : [
                -31.4977970123291,
                -651.7000122070312,
                99.55220031738281
            ],
            "type" : "VEC3"
        },
        {
            "bufferView" : 1,
            "componentType" : 5126,
            "count" : 1356,
            "type" : "VEC3"
        },
        {
            "bufferView" : 2,
            "componentType" : 5123,
            "count" : 5616,
            "type" : "SCALAR"
        },
        {
            "bufferView" : 3,
            "componentType" : 5126,
            "count" : 11335,
            "max" : [
                32.19779586791992,
                -562.0430297851562,
                163.35617065429688
            ],
            "min" : [
                -32.200626373291016,
                -589.3236694335938,
                99.11717224121094
            ],
            "type" : "VEC3"
        },
        {
            "bufferView" : 4,
            "componentType" : 5126,
            "count" : 11335,
            "type" : "VEC3"
        },
        {
            "bufferView" : 5,
            "componentType" : 5123,
            "count" : 50298,
            "type" : "SCALAR"
        },
        {
            "bufferView" : 6,
            "componentType" : 5126,
            "count" : 4020,
            "max" : [
                31.5,
                -572.3018798828125,
                162.5500030517578
            ],
            "min" : [
                -31.5,
                -651.2000122070312,
                77.3499984741211
            ],
            "type" : "VEC3"
        },
        {
            "bufferView" : 7,
            "componentType" : 5126,
            "count" : 4020,
            "type" : "VEC3"
        },
        {
            "bufferView" : 8,
            "componentType" : 5123,
            "count" : 18762,
            "type" : "SCALAR"
        },
        {
            "bufferView" : 9,
            "componentType" : 5126,
            "count" : 268,
            "max" : [
                30.475000381469727,
                -573.008056640625,
                161.52499389648438
            ],
            "min" : [
                -30.475000381469727,
                -651.7000122070312,
                100.57499694824219
            ],
            "type" : "VEC3"
        },
        {
            "bufferView" : 10,
            "componentType" : 5126,
            "count" : 268,
            "type" : "VEC3"
        },
        {
            "bufferView" : 11,
            "componentType" : 5123,
            "count" : 762,
            "type" : "SCALAR"
        },
        {
            "bufferView" : 12,
            "componentType" : 5126,
            "count" : 1536,
            "max" : [
                21.88044548034668,
                -565.7200317382812,
                159.3963165283203
            ],
            "min" : [
                -21.88044548034668,
                -572.2200317382812,
                112.31260681152344
            ],
            "type" : "VEC3"
        },
        {
            "bufferView" : 13,
            "componentType" : 5126,
            "count" : 1536,
            "type" : "VEC3"
        },
        {
            "bufferView" : 14,
            "componentType" : 5123,
            "count" : 6276,
            "type" : "SCALAR"
        },
        {
            "bufferView" : 15,
            "componentType" : 5126,
            "count" : 224,
            "max" : [
                31.496967315673828,
                -577.10302734375,
                70.9000015258789
            ],
            "min" : [
                -31.496967315673828,
                -640.0969848632812,
                70.0999984741211
            ],
            "type" : "VEC3"
        },
        {
            "bufferView" : 16,
            "componentType" : 5126,
            "count" : 224,
            "type" : "VEC3"
        },
        {
            "bufferView" : 17,
            "componentType" : 5123,
            "count" : 648,
            "type" : "SCALAR"
        },
        {
            "bufferView" : 18,
            "componentType" : 5126,
            "count" : 748,
            "max" : [
                31.471303939819336,
                -577.1287231445312,
                77.3499984741211
            ],
            "min" : [
                -31.471303939819336,
                -640.0712890625,
                70.0999984741211
            ],
            "type" : "VEC3"
        },
        {
            "bufferView" : 19,
            "componentType" : 5126,
            "count" : 748,
            "type" : "VEC3"
        },
        {
            "bufferView" : 20,
            "componentType" : 5123,
            "count" : 3054,
            "type" : "SCALAR"
        }
    ],
    "bufferViews" : [
        {
            "buffer" : 0,
            "byteLength" : 16272,
            "byteOffset" : 0
        },
        {
            "buffer" : 0,
            "byteLength" : 16272,
            "byteOffset" : 16272
        },
        {
            "buffer" : 0,
            "byteLength" : 11232,
            "byteOffset" : 32544
        },
        {
            "buffer" : 0,
            "byteLength" : 136020,
            "byteOffset" : 43776
        },
        {
            "buffer" : 0,
            "byteLength" : 136020,
            "byteOffset" : 179796
        },
        {
            "buffer" : 0,
            "byteLength" : 100596,
            "byteOffset" : 315816
        },
        {
            "buffer" : 0,
            "byteLength" : 48240,
            "byteOffset" : 416412
        },
        {
            "buffer" : 0,
            "byteLength" : 48240,
            "byteOffset" : 464652
        },
        {
            "buffer" : 0,
            "byteLength" : 37524,
            "byteOffset" : 512892
        },
        {
            "buffer" : 0,
            "byteLength" : 3216,
            "byteOffset" : 550416
        },
        {
            "buffer" : 0,
            "byteLength" : 3216,
            "byteOffset" : 553632
        },
        {
            "buffer" : 0,
            "byteLength" : 1524,
            "byteOffset" : 556848
        },
        {
            "buffer" : 0,
            "byteLength" : 18432,
            "byteOffset" : 558372
        },
        {
            "buffer" : 0,
            "byteLength" : 18432,
            "byteOffset" : 576804
        },
        {
            "buffer" : 0,
            "byteLength" : 12552,
            "byteOffset" : 595236
        },
        {
            "buffer" : 0,
            "byteLength" : 2688,
            "byteOffset" : 607788
        },
        {
            "buffer" : 0,
            "byteLength" : 2688,
            "byteOffset" : 610476
        },
        {
            "buffer" : 0,
            "byteLength" : 1296,
            "byteOffset" : 613164
        },
        {
            "buffer" : 0,
            "byteLength" : 8976,
            "byteOffset" : 614460
        },
        {
            "buffer" : 0,
            "byteLength" : 8976,
            "byteOffset" : 623436
        },
        {
            "buffer" : 0,
            "byteLength" : 6108,
            "byteOffset" : 632412
        }
    ],
    "buffers" : [
        {
            "byteLength" : 638520,
            "uri" : "data:application/octet-stream;base64,"
        }
    ]
}
