{
    "asset" : {
        "generator" : "Khronos glTF Blender I/O v1.7.33",
        "version" : "2.0"
    },
    "scene" : 0,
    "scenes" : [
        {
            "name" : "Scene",
            "nodes" : [
                0
            ]
        }
    ],
    "nodes" : [
        {
            "mesh" : 0,
            "name" : "UR3_G5_all_inclusive_new/Copy of Link2_UR3_G5^1000513",
            "rotation" : [
                0.7071068286895752,
                0,
                0,
                0.7071067094802856
            ]
        }
    ],
    "materials" : [
        {
            "doubleSided" : true,
            "name" : "mat_16.001",
            "pbrMetallicRoughness" : {
                "baseColorFactor" : [
                    0.8980389833450317,
                    0.8980389833450317,
                    0.8980389833450317,
                    1
                ],
                "metallicFactor" : 0,
                "roughnessFactor" : 0
            }
        },
        {
            "doubleSided" : true,
            "name" : "mat_18.001",
            "pbrMetallicRoughness" : {
                "baseColorFactor" : [
                    0.48235300183296204,
                    0.792156994342804,
                    1,
                    1
                ],
                "metallicFactor" : 0,
                "roughnessFactor" : 0
            }
        },
        {
            "doubleSided" : true,
            "name" : "mat_17.001",
            "pbrMetallicRoughness" : {
                "baseColorFactor" : [
                    0.7529410123825073,
                    0.7529410123825073,
                    0.7529410123825073,
                    1
                ],
                "metallicFactor" : 0,
                "roughnessFactor" : 0
            }
        },
        {
            "doubleSided" : true,
            "name" : "mat_20.001",
            "pbrMetallicRoughness" : {
                "baseColorFactor" : [
                    1,
                    1,
                    0,
                    1
                ],
                "metallicFactor" : 0,
                "roughnessFactor" : 0
            }
        },
        {
            "doubleSided" : true,
            "name" : "mat_21.001",
            "pbrMetallicRoughness" : {
                "baseColorFactor" : [
                    1,
                    0.9568629860877991,
                    0.18431399762630463,
                    1
                ],
                "metallicFactor" : 0,
                "roughnessFactor" : 0
            }
        },
        {
            "doubleSided" : true,
            "name" : "mat_10.001",
            "pbrMetallicRoughness" : {
                "baseColorFactor" : [
                    0.38431400060653687,
                    0.38431400060653687,
                    0.38431400060653687,
                    1
                ],
                "metallicFactor" : 0,
                "roughnessFactor" : 0
            }
        },
        {
            "doubleSided" : true,
            "name" : "mat_11.001",
            "pbrMetallicRoughness" : {
                "baseColorFactor" : [
                    0.6980389952659607,
                    0.6980389952659607,
                    0.6980389952659607,
                    1
                ],
                "metallicFactor" : 0,
                "roughnessFactor" : 0
            }
        },
        {
            "doubleSided" : true,
            "name" : "mat_19.001",
            "pbrMetallicRoughness" : {
                "baseColorFactor" : [
                    0.792156994342804,
                    0.8196079730987549,
                    0.9333329796791077,
                    1
                ],
                "metallicFactor" : 0,
                "roughnessFactor" : 0
            }
        }
    ],
    "meshes" : [
        {
            "name" : "UR3_G5_all_inclusive_new/Copy of Link2_UR3_G5^1000513",
            "primitives" : [
                {
                    "attributes" : {
                        "POSITION" : 0,
                        "NORMAL" : 1
                    },
                    "indices" : 2,
                    "material" : 0
                },
                {
                    "attributes" : {
                        "POSITION" : 3,
                        "NORMAL" : 4
                    },
                    "indices" : 5,
                    "material" : 1
                },
                {
                    "attributes" : {
                        "POSITION" : 6,
                        "NORMAL" : 7
                    },
                    "indices" : 8,
                    "material" : 2
                },
                {
                    "attributes" : {
                        "POSITION" : 9,
                        "NORMAL" : 10
                    },
                    "indices" : 11,
                    "material" : 3
                },
                {
                    "attributes" : {
                        "POSITION" : 12,
                        "NORMAL" : 13
                    },
                    "indices" : 14,
                    "material" : 4
                },
                {
                    "attributes" : {
                        "POSITION" : 15,
                        "NORMAL" : 16
                    },
                    "indices" : 17,
                    "material" : 5
                },
                {
                    "attributes" : {
                        "POSITION" : 18,
                        "NORMAL" : 19
                    },
                    "indices" : 20,
                    "material" : 6
                },
                {
                    "attributes" : {
                        "POSITION" : 21,
                        "NORMAL" : 22
                    },
                    "indices" : 23,
                    "material" : 7
                }
            ]
        }
    ],
    "accessors" : [
        {
            "bufferView" : 0,
            "componentType" : 5126,
            "count" : 7569,
            "max" : [
                44.99985122680664,
                -106.85015106201172,
                174.53147888183594
            ],
            "min" : [
                -44.99985122680664,
                -432.86083984375,
                62.95000076293945
            ],
            "type" : "VEC3"
        },
        {
            "bufferView" : 1,
            "componentType" : 5126,
            "count" : 7569,
            "type" : "VEC3"
        },
        {
            "bufferView" : 2,
            "componentType" : 5123,
            "count" : 31803,
            "type" : "SCALAR"
        },
        {
            "bufferView" : 3,
            "componentType" : 5126,
            "count" : 31945,
            "max" : [
                46.92546463012695,
                -104.86419677734375,
                178.0536346435547
            ],
            "min" : [
                -46.882686614990234,
                -434.7400207519531,
                127.11019134521484
            ],
            "type" : "VEC3"
        },
        {
            "bufferView" : 4,
            "componentType" : 5126,
            "count" : 31945,
            "type" : "VEC3"
        },
        {
            "bufferView" : 5,
            "componentType" : 5123,
            "count" : 122910,
            "type" : "SCALAR"
        },
        {
            "bufferView" : 6,
            "componentType" : 5126,
            "count" : 5690,
            "max" : [
                45.00056457519531,
                -106.8499984741211,
                169.3384246826172
            ],
            "min" : [
                -45.00056457519531,
                -432.8999938964844,
                62.95000076293945
            ],
            "type" : "VEC3"
        },
        {
            "bufferView" : 7,
            "componentType" : 5126,
            "count" : 5690,
            "type" : "VEC3"
        },
        {
            "bufferView" : 8,
            "componentType" : 5123,
            "count" : 20931,
            "type" : "SCALAR"
        },
        {
            "bufferView" : 9,
            "componentType" : 5126,
            "count" : 228,
            "max" : [
                36.70000076293945,
                -358.70001220703125,
                81.8236083984375
            ],
            "min" : [
                -36.70000076293945,
                -432.1000061035156,
                74.1500015258789
            ],
            "type" : "VEC3"
        },
        {
            "bufferView" : 10,
            "componentType" : 5126,
            "count" : 228,
            "type" : "VEC3"
        },
        {
            "bufferView" : 11,
            "componentType" : 5123,
            "count" : 864,
            "type" : "SCALAR"
        },
        {
            "bufferView" : 12,
            "componentType" : 5126,
            "count" : 204,
            "max" : [
                37.49911117553711,
                -357.9033203125,
                159.6101531982422
            ],
            "min" : [
                -37.49911117553711,
                -432.89678955078125,
                74.44999694824219
            ],
            "type" : "VEC3"
        },
        {
            "bufferView" : 13,
            "componentType" : 5126,
            "count" : 204,
            "type" : "VEC3"
        },
        {
            "bufferView" : 14,
            "componentType" : 5123,
            "count" : 600,
            "type" : "SCALAR"
        },
        {
            "bufferView" : 15,
            "componentType" : 5126,
            "count" : 1396,
            "max" : [
                44.96172332763672,
                -194.4901885986328,
                164.83042907714844
            ],
            "min" : [
                -44.96172332763672,
                -349.54998779296875,
                74.86957550048828
            ],
            "type" : "VEC3"
        },
        {
            "bufferView" : 16,
            "componentType" : 5126,
            "count" : 1396,
            "type" : "VEC3"
        },
        {
            "bufferView" : 17,
            "componentType" : 5123,
            "count" : 5682,
            "type" : "SCALAR"
        },
        {
            "bufferView" : 18,
            "componentType" : 5126,
            "count" : 1436,
            "max" : [
                44.93772888183594,
                -214,
                164.78773498535156
            ],
            "min" : [
                -44.93772888183594,
                -342.79998779296875,
                74.91226959228516
            ],
            "type" : "VEC3"
        },
        {
            "bufferView" : 19,
            "componentType" : 5126,
            "count" : 1436,
            "type" : "VEC3"
        },
        {
            "bufferView" : 20,
            "componentType" : 5123,
            "count" : 5832,
            "type" : "SCALAR"
        },
        {
            "bufferView" : 21,
            "componentType" : 5126,
            "count" : 72,
            "max" : [
                37.5,
                -357.8999938964844,
                74.1500015258789
            ],
            "min" : [
                -37.5,
                -432.8999938964844,
                74.1500015258789
            ],
            "type" : "VEC3"
        },
        {
            "bufferView" : 22,
            "componentType" : 5126,
            "count" : 72,
            "type" : "VEC3"
        },
        {
            "bufferView" : 23,
            "componentType" : 5123,
            "count" : 216,
            "type" : "SCALAR"
        }
    ],
    "bufferViews" : [
        {
            "buffer" : 0,
            "byteLength" : 90828,
            "byteOffset" : 0
        },
        {
            "buffer" : 0,
            "byteLength" : 90828,
            "byteOffset" : 90828
        },
        {
            "buffer" : 0,
            "byteLength" : 63606,
            "byteOffset" : 181656
        },
        {
            "buffer" : 0,
            "byteLength" : 383340,
            "byteOffset" : 245264
        },
        {
            "buffer" : 0,
            "byteLength" : 383340,
            "byteOffset" : 628604
        },
        {
            "buffer" : 0,
            "byteLength" : 245820,
            "byteOffset" : 1011944
        },
        {
            "buffer" : 0,
            "byteLength" : 68280,
            "byteOffset" : 1257764
        },
        {
            "buffer" : 0,
            "byteLength" : 68280,
            "byteOffset" : 1326044
        },
        {
            "buffer" : 0,
            "byteLength" : 41862,
            "byteOffset" : 1394324
        },
        {
            "buffer" : 0,
            "byteLength" : 2736,
            "byteOffset" : 1436188
        },
        {
            "buffer" : 0,
            "byteLength" : 2736,
            "byteOffset" : 1438924
        },
        {
            "buffer" : 0,
            "byteLength" : 1728,
            "byteOffset" : 1441660
        },
        {
            "buffer" : 0,
            "byteLength" : 2448,
            "byteOffset" : 1443388
        },
        {
            "buffer" : 0,
            "byteLength" : 2448,
            "byteOffset" : 1445836
        },
        {
            "buffer" : 0,
            "byteLength" : 1200,
            "byteOffset" : 1448284
        },
        {
            "buffer" : 0,
            "byteLength" : 16752,
            "byteOffset" : 1449484
        },
        {
            "buffer" : 0,
            "byteLength" : 16752,
            "byteOffset" : 1466236
        },
        {
            "buffer" : 0,
            "byteLength" : 11364,
            "byteOffset" : 1482988
        },
        {
            "buffer" : 0,
            "byteLength" : 17232,
            "byteOffset" : 1494352
        },
        {
            "buffer" : 0,
            "byteLength" : 17232,
            "byteOffset" : 1511584
        },
        {
            "buffer" : 0,
            "byteLength" : 11664,
            "byteOffset" : 1528816
        },
        {
            "buffer" : 0,
            "byteLength" : 864,
            "byteOffset" : 1540480
        },
        {
            "buffer" : 0,
            "byteLength" : 864,
            "byteOffset" : 1541344
        },
        {
            "buffer" : 0,
            "byteLength" : 432,
            "byteOffset" : 1542208
        }
    ],
    "buffers" : [
        {
            "byteLength" : 1542640,
            "uri" : "data:application/octet-stream;base64,"
        }
    ]
}
